<?xml version="1.0" encoding="UTF-8" standalone="no"?>
<svg
   height="16"
   viewBox="0 0 16 16"
   width="16"
   fill="currentColor"
   version="1.1"
   id="svg2"
   sodipodi:docname="visibility.svg"
   inkscape:version="1.4 (1:1.4+202410161351+e7c3feb100)"
   xmlns:inkscape="http://www.inkscape.org/namespaces/inkscape"
   xmlns:sodipodi="http://sodipodi.sourceforge.net/DTD/sodipodi-0.dtd"
   xmlns="http://www.w3.org/2000/svg"
   xmlns:svg="http://www.w3.org/2000/svg">
  <defs
     id="defs2" />
  <sodipodi:namedview
     id="namedview2"
     pagecolor="#ffffff"
     bordercolor="#000000"
     borderopacity="0.25"
     inkscape:showpageshadow="2"
     inkscape:pageopacity="0.0"
     inkscape:pagecheckerboard="0"
     inkscape:deskcolor="#d1d1d1"
     inkscape:zoom="32"
     inkscape:cx="11.984375"
     inkscape:cy="12"
     inkscape:window-width="1920"
     inkscape:window-height="973"
     inkscape:window-x="0"
     inkscape:window-y="0"
     inkscape:window-maximized="1"
     inkscape:current-layer="svg2" />
  <path
     d="m 8,2.5 c -3.6363636,0 -6.7418182,2.2618182 -8,5.4545455 1.2581818,3.1927275 4.3636364,5.4545455 8,5.4545455 3.636364,0 6.741818,-2.261818 8,-5.4545455 C 14.741818,4.7618182 11.636364,2.5 8,2.5 Z m 0,9.090909 c -2.0072727,0 -3.6363636,-1.629091 -3.6363636,-3.6363635 0,-2.0072728 1.6290909,-3.6363637 3.6363636,-3.6363637 2.007273,0 3.636364,1.6290909 3.636364,3.6363637 0,2.0072725 -1.629091,3.6363635 -3.636364,3.6363635 z M 8,5.7727273 c -1.2072727,0 -2.1818182,0.9745454 -2.1818182,2.1818182 0,1.2072725 0.9745455,2.1818185 2.1818182,2.1818185 1.207273,0 2.181818,-0.974546 2.181818,-2.1818185 C 10.181818,6.7472727 9.207273,5.7727273 8,5.7727273 Z"
     id="path2"
     style="stroke-width:0.727273" />
</svg>
